<svg fill="none" height="24" viewBox="0 0 24 24" width="24" xmlns="http://www.w3.org/2000/svg"><g fill="#292d32"><path d="m12 22.75c-5.93 0-10.75-4.82-10.75-10.75s4.82-10.75 10.75-10.75 10.75 4.82 10.75 10.75-4.82 10.75-10.75 10.75zm0-20c-5.1 0-9.25 4.15-9.25 9.25s4.15 9.25 9.25 9.25 9.25-4.15 9.25-9.25-4.15-9.25-9.25-9.25z"/><path d="m15.7096 15.93c-.13 0-.26-.03-.38-.11l-3.1-1.85c-.77-.46-1.34-1.47-1.34-2.36v-4.09999c0-.41.34-.75.75-.75s.75.34.75.75v4.09999c0 .36.3.89.61 1.07l3.1 1.85c.36.21.47.67.26 1.03-.15.24-.4.37-.65.37z"/></g></svg>